<?xml version="1.0" encoding="UTF-8" standalone="no"?>
<svg width="246px" height="56px" viewBox="0 0 246 56" version="1.1" xmlns="http://www.w3.org/2000/svg" xmlns:xlink="http://www.w3.org/1999/xlink">
    <!-- Generator: Sketch 46.2 (44496) - http://www.bohemiancoding.com/sketch -->
    <title>Group 4</title>
    <desc>Created with Sketch.</desc>
    <defs/>
    <g id="Brand" stroke="none" stroke-width="1" fill="none" fill-rule="evenodd">
        <g id="Group-4">
            <path d="M69.4578047,2.39227098 C62.0509836,0.849260854 52.2667908,0 41.9043185,0 C31.5418461,0 21.7576534,0.849260854 14.3517635,2.39227098 C4.56012106,4.43068327 0,7.48411128 0,11.9995344 C0,12.3319753 0.0270050052,12.6560354 0.0717029449,12.9093237 C0.753346525,20.1047608 5.96996857,56 41.9043185,56 C77.8284251,56 83.0552904,20.1047608 83.7294843,12.9707834 C83.7816319,12.6532418 83.8086369,12.3291817 83.8086369,11.9995344 C83.8086369,7.48411128 79.2485159,4.43068327 69.4578047,2.39227098 L69.4578047,2.39227098 Z M41.9043185,18.8867419 C19.1093004,18.8867419 5.11232685,14.8751019 5.11232685,11.9995344 C5.11232685,9.12303574 19.1083692,5.11232685 41.9043185,5.11232685 C64.7002677,5.11232685 78.6944477,9.12396694 78.6944477,11.9995344 C78.6944477,14.8751019 64.6993365,18.8867419 41.9043185,18.8867419 L41.9043185,18.8867419 Z" id="Shape" fill="#FAD46B"/>
            <path d="M112.483309,43.4426705 C110.253991,43.4426705 109,42.1886792 109,39.9129173 L109,15.9477504 C109,13.7184325 110.253991,12.4644412 112.483309,12.4644412 L125.301887,12.4644412 C131.20029,12.4644412 134.219158,16.2264151 134.219158,20.3599419 C134.219158,24.2612482 131.804064,26.862119 128.878084,27.4658926 C132.175617,27.9767779 134.822932,31.1814224 134.822932,35.0827286 C134.822932,39.7271408 131.711176,43.4426705 125.812772,43.4426705 L112.483309,43.4426705 Z M115.595065,24.9114659 L123.862119,24.9114659 C126.091437,24.9114659 127.484761,23.4716981 127.484761,21.4746009 C127.484761,19.5703919 126.091437,18.08418 123.862119,18.08418 L115.595065,18.08418 L115.595065,24.9114659 Z M115.595065,37.8229318 L124.09434,37.8229318 C126.602322,37.8229318 128.088534,36.383164 128.088534,34.1538462 C128.088534,32.203193 126.69521,30.5312046 124.09434,30.5312046 L115.595065,30.5312046 L115.595065,37.8229318 Z M168.367199,39.2626996 C168.506531,39.5878084 168.645864,40.0058055 168.645864,40.4238026 C168.645864,42.2815675 167.113208,43.7677794 165.255443,43.7677794 C163.815675,43.7677794 162.561684,42.838897 162.143687,41.5384615 L160.889695,37.91582 L146.956459,37.91582 L145.702467,41.5384615 C145.28447,42.838897 143.984035,43.7677794 142.544267,43.7677794 C140.686502,43.7677794 139.20029,42.2815675 139.20029,40.4238026 C139.20029,40.0058055 139.293179,39.5878084 139.432511,39.2626996 L148.489115,15.8548621 C149.325109,13.6719884 151.415094,12.1393324 153.923077,12.1393324 C156.384615,12.1393324 158.521045,13.6719884 159.357039,15.8548621 L168.367199,39.2626996 Z M149,32.203193 L158.846154,32.203193 L153.923077,18.1770682 L149,32.203193 Z M173.952104,40.8882438 C176.738752,42.838897 180.314949,44 184.866473,44 C193.226415,44 197.267054,39.7271408 197.267054,34.0609579 C197.267054,27.1872279 190.764877,25.6545718 185.656023,24.4934688 C182.079826,23.6574746 179.478955,23.0072569 179.478955,20.9172714 C179.478955,19.0595065 181.058055,17.7590711 184.49492,17.7590711 C186.677794,17.7590711 189.092888,18.4092888 191.507983,19.7561684 C191.92598,20.0348331 192.483309,20.2206096 193.087083,20.2206096 C194.712627,20.2206096 196.105951,18.8272859 196.105951,17.1552975 C196.105951,16.0406386 195.455733,15.0188679 194.573295,14.5544267 C191.600871,12.8359942 188.489115,12 184.959361,12 C177.203193,12 172.744557,16.179971 172.744557,21.3352685 C172.744557,28.2554427 179.246734,29.6487663 184.309144,30.8098694 C187.885341,31.6458636 190.5791,32.4354136 190.5791,34.7576197 C190.5791,36.5224964 188.814224,38.2409289 185.191582,38.2409289 C182.079826,38.2409289 179.525399,37.2656023 177.38897,35.7793904 C176.878084,35.4078374 176.274311,35.222061 175.624093,35.222061 C173.952104,35.222061 172.558781,36.6153846 172.558781,38.3338171 C172.558781,39.4020319 173.11611,40.3309144 173.952104,40.8882438 Z M206.521045,43.7677794 C208.332366,43.7677794 209.772134,42.2351234 209.772134,40.4702467 L209.772134,15.436865 C209.772134,13.6255443 208.332366,12.1393324 206.521045,12.1393324 C204.66328,12.1393324 203.177068,13.6255443 203.177068,15.436865 L203.177068,40.4702467 C203.177068,42.2351234 204.66328,43.7677794 206.521045,43.7677794 Z M241.040639,43.7677794 C243.269956,43.7677794 245.081277,41.9564586 245.081277,39.7271408 L245.081277,15.436865 C245.081277,13.6255443 243.595065,12.1393324 241.783745,12.1393324 C239.92598,12.1393324 238.486212,13.6255443 238.486212,15.436865 L238.486212,32.5283019 L225.203193,13.9506531 C224.413643,12.8359942 223.113208,12.1393324 221.67344,12.1393324 C219.258345,12.1393324 217.354136,14.0899855 217.354136,16.4586357 L217.354136,40.4702467 C217.354136,42.2351234 218.840348,43.7677794 220.698113,43.7677794 C222.509434,43.7677794 223.949202,42.2351234 223.949202,40.4702467 L223.949202,22.6357039 L237.743106,42.0493469 C238.486212,43.1175617 239.693759,43.7677794 241.040639,43.7677794 Z" id="BASIN" fill="rgb(0,0,0)"/>
        </g>
    </g>
</svg>